<?xml version="1.0" standalone="no"?>
<!DOCTYPE svg PUBLIC "-//W3C//DTD SVG 20010904//EN"
 "http://www.w3.org/TR/2001/REC-SVG-20010904/DTD/svg10.dtd">
<svg version="1.0" xmlns="http://www.w3.org/2000/svg"
 width="626.000000pt" height="626.000000pt" viewBox="0 0 626.000000 626.000000"
 preserveAspectRatio="xMidYMid meet">
<metadata>
Created by potrace 1.11, written by Peter Selinger 2001-2013
</metadata>
<g transform="translate(0.000000,626.000000) scale(0.100000,-0.100000)"
fill="#000000" stroke="none">
<path d="M2147 4825 c-20 -19 -22 -49 -4 -62 6 -6 39 -13 73 -16 160 -13 246
-99 271 -271 9 -66 30 -89 60 -70 15 10 18 26 17 91 -2 129 -59 230 -164 287
-62 34 -98 44 -176 52 -49 5 -64 3 -77 -11z"/>
<path d="M2600 4193 c0 -24 65 -121 153 -227 15 -19 27 -39 27 -45 0 -6 4 -11
8 -11 5 0 22 -19 39 -42 17 -24 44 -58 60 -75 l30 -33 33 41 33 41 -134 134
c-73 73 -137 130 -143 127 -6 -3 -8 -2 -3 2 7 9 -80 105 -95 105 -4 0 -8 -8
-8 -17z"/>
<path d="M3641 3133 l-23 -27 43 -38 c50 -43 84 -57 117 -49 21 6 17 11 -45
73 l-68 67 -24 -26z"/>
<path d="M2730 3016 c45 -50 242 -168 256 -153 3 2 -9 10 -25 17 -19 7 -28 17
-24 26 3 8 0 14 -7 14 -6 0 -8 -5 -4 -12 5 -8 2 -9 -10 -5 -10 4 -22 7 -27 7
-6 0 -8 4 -5 9 3 5 -2 15 -11 22 -12 10 -14 10 -9 2 4 -7 5 -13 1 -13 -10 0
-83 49 -122 82 -33 28 -35 29 -13 4z"/>
<path d="M3940 2866 c0 -2 7 -7 16 -10 8 -3 12 -2 9 4 -6 10 -25 14 -25 6z"/>
<path d="M2465 2724 c-47 -24 -73 -53 -91 -100 -67 -174 154 -323 290 -196 86
81 71 229 -30 288 -48 28 -123 32 -169 8z m146 -93 c69 -69 5 -189 -88 -166
-117 29 -99 194 20 195 29 0 45 -7 68 -29z"/>
<path d="M3955 2726 c-91 -41 -129 -147 -86 -242 47 -102 183 -136 269 -67
138 111 65 324 -110 323 -24 -1 -56 -7 -73 -14z m146 -95 c22 -23 29 -39 29
-68 -1 -96 -112 -135 -174 -62 -30 35 -33 67 -11 109 19 37 41 49 88 50 29 0
45 -7 68 -29z"/>
<path d="M3183 2141 c-82 -21 -161 -93 -178 -164 -9 -34 17 -77 45 -77 17 0
20 7 20 51 0 61 24 105 70 132 17 11 33 17 35 15 3 -2 -12 -47 -31 -98 -20
-52 -60 -159 -89 -237 l-53 -143 27 0 c26 0 30 7 81 150 30 82 58 150 62 150
3 0 4 -26 2 -57 -2 -32 -6 -100 -8 -150 l-5 -93 48 0 47 0 49 118 c27 64 55
132 62 151 8 18 16 31 18 29 3 -2 -4 -62 -15 -132 -28 -178 -29 -168 27 -164
l48 3 36 250 c20 138 33 254 29 258 -4 5 -26 7 -49 5 l-42 -3 -72 -172 c-40
-94 -76 -175 -80 -179 -5 -5 -6 25 -3 66 16 217 17 290 4 290 -7 0 -22 2 -33
4 -11 3 -34 1 -52 -3z"/>
<path d="M4248 2103 c-17 -3 -28 -12 -32 -26 -6 -27 -96 -449 -96 -454 0 -1
22 -3 48 -3 l49 0 18 86 c14 67 23 89 41 101 44 29 57 11 50 -65 -6 -60 -4
-71 14 -95 29 -37 95 -38 137 -3 l28 24 28 -24 c49 -42 148 -29 209 29 l27 25
11 -33 c12 -36 26 -45 70 -45 20 0 35 9 50 30 16 23 18 30 7 30 -33 0 -35 24
-12 132 28 132 31 140 51 136 9 -2 19 3 21 10 3 7 -4 12 -17 12 -19 0 -21 4
-16 26 21 83 21 88 -5 81 -13 -4 -36 -7 -51 -7 -25 0 -29 -5 -34 -41 -4 -23
-15 -49 -25 -57 -13 -11 -15 -18 -7 -23 19 -12 -21 -187 -51 -222 -63 -75
-161 -73 -161 2 0 25 5 30 44 41 112 31 164 173 74 202 -33 11 -96 -4 -131
-32 -35 -28 -76 -115 -84 -178 -7 -59 -30 -87 -62 -77 -20 6 -21 11 -15 70 8
79 -8 112 -58 117 -32 3 -32 3 37 51 67 46 68 47 36 47 -25 0 -49 -13 -98 -51
-35 -28 -66 -49 -69 -47 -2 3 7 55 21 116 14 61 25 113 25 116 0 6 -27 6 -72
-1z m465 -177 c13 -34 -21 -99 -64 -122 -39 -20 -42 -18 -35 18 15 78 82 148
99 104z"/>
<path d="M3599 1947 c-19 -12 -47 -47 -64 -77 -26 -48 -30 -65 -30 -132 0 -67
3 -80 23 -100 33 -33 94 -30 133 8 16 15 30 26 31 23 2 -2 8 -13 14 -23 23
-42 58 -41 148 2 5 3 6 -3 3 -12 -5 -13 1 -16 43 -16 56 0 53 -6 85 160 10 47
23 95 31 108 18 28 51 29 59 1 5 -15 14 -19 32 -17 33 4 48 27 39 61 -9 36
-39 43 -86 18 l-40 -21 0 21 c0 18 -5 20 -47 17 l-47 -3 -18 -90 c-22 -111
-36 -155 -56 -177 -19 -22 -51 -23 -59 -2 -5 13 23 177 43 252 6 21 3 22 -45
22 -33 0 -51 -4 -51 -12 0 -9 -3 -9 -12 0 -20 20 -92 14 -129 -11z m126 -26
c7 -12 -29 -182 -45 -211 -14 -26 -59 -38 -71 -19 -24 38 5 174 47 220 18 20
59 26 69 10z"/>
</g>
</svg>
